# xmcd
#
# Track frame offsets:
#	150
#	15278
#	26896
#	46517
#	60472
#	77707
#	94420
#	107958
#	122814
#	135315
#	149819
#	168541
#	181172
#	199288
#	211566
#	222998
#	237453
#	254599
#	268532
#	284908
#	301261
#	314526
#	330773
#
# Disc length: 4565 seconds
#
# Revision: 1
# Processed by: cddbd v1.5.2PL0 Copyright (c) Steve Scherf et al.
# Submitted via: audiograbber 1.82.02
#
DISCID=5411d317
DTITLE=Svenne Mix - Svenne Mix 3
DYEAR=2001
DGENRE=
TTITLE0=Another sombody done sombody -Billie Jo Spears
TTITLE1=Welcom to my world -Jim Reeves
TTITLE2=You ain´t just whistling Dixie -The Bellamy Brothers
TTITLE3=Coat of many colors -Dolly Parton
TTITLE4=Midsummer nights -Kenny Rogers
TTITLE5=U S of America -Donna Fargo
TTITLE6=Stand by your man -Ronnie Milsap
TTITLE7=Banks of the Ohio -Olivia Newton-John
TTITLE8=Late night Radio -John Denver
TTITLE9=Could I have this dance -Ann Murray
TTITLE10=Honey -Tammy Wynette
TTITLE11=You know who -Bobby Bare
TTITLE12=Rainy, windy, sunshine -The Bellamy Brothers
TTITLE13=Seeing is beliving -Nanna Mouskouri
TTITLE14=Let´s try to wake up again -Billie Jo Spears
TTITLE15=Sweethearts -BeeGees
TTITLE16=Don´t forget to remember -Donna Fargo
TTITLE17=This it is -Jim Reeves
TTITLE18=You needed me -Ann Murray
TTITLE19=One way wind -The Cats
TTITLE20=Loving you was all I ever need -Billie Jo Spears
TTITLE21=Sing me an old fashinoned song -Billie Jo Spears
TTITLE22=I hate goodbyes -Bobby Bare
EXTD=
EXTT0=
EXTT1=
EXTT2=
EXTT3=
EXTT4=
EXTT5=
EXTT6=
EXTT7=
EXTT8=
EXTT9=
EXTT10=
EXTT11=
EXTT12=
EXTT13=
EXTT14=
EXTT15=
EXTT16=
EXTT17=
EXTT18=
EXTT19=
EXTT20=
EXTT21=
EXTT22=
PLAYORDER=
